HIERARCHY
ROOT hip
{
  OFFSET 0 0 0
  CHANNELS 6 Xposition Yposition Zposition Zrotation Yrotation Xrotation
  JOINT abdomen
  {
    OFFSET 0 20.6881 -0.73152
    CHANNELS 3 Zrotation Xrotation Yrotation
    JOINT chest
    {
      OFFSET 0 11.7043 -0.48768
      CHANNELS 3 Zrotation Xrotation Yrotation
      JOINT neck
      {
        OFFSET 0 22.1894 -2.19456
        CHANNELS 3 Zrotation Xrotation Yrotation
        JOINT head
        {
          OFFSET -0.24384 7.07133 1.2192
          CHANNELS 3 Zrotation Xrotation Yrotation
          JOINT leftEye
          {
            OFFSET 4.14528 8.04674 8.04672
            CHANNELS 3 Zrotation Xrotation Yrotation
            End Site
            {
              OFFSET 1 0 0
            }
          }
          JOINT rightEye
          {
            OFFSET -3.6576 8.04674 8.04672
            CHANNELS 3 Zrotation Xrotation Yrotation
            End Site
            {
              OFFSET 1 0 0
            }
          }
        }
      }
      JOINT rCollar
      {
        OFFSET -2.68224 19.2634 -4.8768
        CHANNELS 3 Zrotation Xrotation Yrotation
        JOINT rShldr
        {
          OFFSET -8.77824 -1.95073 1.46304
          CHANNELS 3 Zrotation Xrotation Yrotation
          JOINT rForeArm
          {
            OFFSET -28.1742 -1.7115 0.48768
            CHANNELS 3 Zrotation Xrotation Yrotation
            JOINT rHand
            {
              OFFSET -22.5879 0.773209 7.07136
              CHANNELS 3 Zrotation Xrotation Yrotation
              JOINT rThumb1
              {
                OFFSET -1.2192 -0.487915 3.41376
                CHANNELS 3 Zrotation Xrotation Yrotation
                JOINT rThumb2
                {
                  OFFSET -3.37035 -0.52449 3.41376
                  CHANNELS 3 Zrotation Xrotation Yrotation
                  End Site
                  {
                    OFFSET -1.78271 -1.18214 1.43049
                  }
                }
              }
              JOINT rIndex1
              {
                OFFSET -7.75947 0.938293 5.60832
                CHANNELS 3 Zrotation Xrotation Yrotation
                JOINT rIndex2
                {
                  OFFSET -2.54057 -0.884171 1.56538
                  CHANNELS 3 Zrotation Xrotation Yrotation
                  End Site
                  {
                    OFFSET -1.62519 -0.234802 1.16502
                  }
                }
              }
              JOINT rMid1
              {
                OFFSET -8.24714 1.18213 3.41376
                CHANNELS 3 Zrotation Xrotation Yrotation
                JOINT rMid2
                {
                  OFFSET -3.10165 -0.590103 1.0647
                  CHANNELS 3 Zrotation Xrotation Yrotation
                  End Site
                  {
                    OFFSET -2.48547 -0.328903 0.83742
                  }
                }
              }
              JOINT rRing1
              {
                OFFSET -8.82822 0.546677 1.51678
                CHANNELS 3 Zrotation Xrotation Yrotation
                JOINT rRing2
                {
                  OFFSET -2.60934 -0.819778 -0.0198488
                  CHANNELS 3 Zrotation Xrotation Yrotation
                  End Site
                  {
                    OFFSET -2.33842 -0.294052 0.168128
                  }
                }
              }
              JOINT rPinky1
              {
                OFFSET -8.27202 -0.0477905 -0.4584
                CHANNELS 3 Zrotation Xrotation Yrotation
                JOINT rPinky2
                {
                  OFFSET -1.82734 -0.647385 -0.700984
                  CHANNELS 3 Zrotation Xrotation Yrotation
                  End Site
                  {
                    OFFSET -1.69225 -0.51767 -0.607171
                  }
                }
              }
            }
          }
        }
      }
      JOINT lCollar
      {
        OFFSET 2.68224 19.2634 -4.8768
        CHANNELS 3 Zrotation Xrotation Yrotation
        JOINT lShldr
        {
          OFFSET 8.77824 -1.95073 1.46304
          CHANNELS 3 Zrotation Xrotation Yrotation
          JOINT lForeArm
          {
            OFFSET 28.1742 -1.7115 0.48768
            CHANNELS 3 Zrotation Xrotation Yrotation
            JOINT lHand
            {
              OFFSET 22.5879 0.773209 7.07136
              CHANNELS 3 Zrotation Xrotation Yrotation
              JOINT lThumb1
              {
                OFFSET 1.2192 -0.487915 3.41376
                CHANNELS 3 Zrotation Xrotation Yrotation
                JOINT lThumb2
                {
                  OFFSET 3.37035 -0.52449 3.41376
                  CHANNELS 3 Zrotation Xrotation Yrotation
                  End Site
                  {
                    OFFSET 1.78271 -1.18214 1.43049
                  }
                }
              }
              JOINT lIndex1
              {
                OFFSET 7.75947 0.938293 5.60832
                CHANNELS 3 Zrotation Xrotation Yrotation
                JOINT lIndex2
                {
                  OFFSET 2.54057 -0.884171 1.56538
                  CHANNELS 3 Zrotation Xrotation Yrotation
                  End Site
                  {
                    OFFSET 1.62519 -0.234802 1.16502
                  }
                }
              }
              JOINT lMid1
              {
                OFFSET 8.24714 1.18213 3.41376
                CHANNELS 3 Zrotation Xrotation Yrotation
                JOINT lMid2
                {
                  OFFSET 3.10165 -0.590103 1.0647
                  CHANNELS 3 Zrotation Xrotation Yrotation
                  End Site
                  {
                    OFFSET 2.48547 -0.328903 0.83742
                  }
                }
              }
              JOINT lRing1
              {
                OFFSET 8.82822 0.546677 1.51678
                CHANNELS 3 Zrotation Xrotation Yrotation
                JOINT lRing2
                {
                  OFFSET 2.60934 -0.819778 -0.0198488
                  CHANNELS 3 Zrotation Xrotation Yrotation
                  End Site
                  {
                    OFFSET 2.33842 -0.294052 0.168128
                  }
                }
              }
              JOINT lPinky1
              {
                OFFSET 8.27202 -0.0477905 -0.4584
                CHANNELS 3 Zrotation Xrotation Yrotation
                JOINT lPinky2
                {
                  OFFSET 1.82734 -0.647385 -0.700984
                  CHANNELS 3 Zrotation Xrotation Yrotation
                  End Site
                  {
                    OFFSET 1.69225 -0.51767 -0.607171
                  }
                }
              }
            }
          }
        }
      }
    }
  }
  JOINT rButtock
  {
    OFFSET -8.77824 4.35084 1.2192
    CHANNELS 3 Zrotation Xrotation Yrotation
    JOINT rThigh
    {
      OFFSET 0 -1.70687 -2.19456
      CHANNELS 3 Zrotation Xrotation Yrotation
      JOINT rShin
      {
        OFFSET 0 -36.8199 0.73152
        CHANNELS 3 Zrotation Xrotation Yrotation
        JOINT rFoot
        {
          OFFSET 0.73152 -45.1104 -5.12064
          CHANNELS 3 Zrotation Xrotation Yrotation
          End Site
          {
            OFFSET -1.1221 -3.69964 12.103
          }
        }
      }
    }
  }
  JOINT lButtock
  {
    OFFSET 8.77824 4.35084 1.2192
    CHANNELS 3 Zrotation Xrotation Yrotation
    JOINT lThigh
    {
      OFFSET 0 -1.70687 -2.19456
      CHANNELS 3 Zrotation Xrotation Yrotation
      JOINT lShin
      {
        OFFSET 0 -36.8199 0.73152
        CHANNELS 3 Zrotation Xrotation Yrotation
        JOINT lFoot
        {
          OFFSET -0.73152 -45.1104 -5.12064
          CHANNELS 3 Zrotation Xrotation Yrotation
          End Site
          {
            OFFSET 1.1221 -3.69964 12.103
          }
        }
      }
    }
  }
}
MOTION
Frames:	4
Frame Time:	0.00833333
-7.36136 85.1847 -137.801 0.0 0.0 0.0 0.551263 -0.00551324 0.0158547 0.152486 -0.00892953 0.0264262 8.95666e-15 -7.95139e-16 5.59082e-17 2.6839e-14 3.18055e-15 1.58407e-16 -0.0 0.0 0.0 -0.0 0.0 0.0 4.5708e-15 -1.26182e-17 2.48481e-16 9.50185e-14 6.21202e-18 1.59028e-15 1.60991e-12 -4.8901e-13 3.18055e-15 1.84327e-11 4.43986e-13 1.145e-13 4.34733e-11 -1.02959e-13 2.79889e-13 7.50643e-11 -1.81292e-13 4.92986e-13 4.34742e-11 -1.0297e-13 2.63986e-13 7.73091 5.47488 0.417314 4.34712e-11 -1.03269e-13 2.79889e-13 2.90554 0.965183 0.102902 4.34807e-11 -1.03368e-13 2.8625e-13 10.2786 0.731801 0.0259123 4.34686e-11 -9.93923e-14 2.98972e-13 2.22167 -0.733487 -0.20892 4.3748e-15 -1.26182e-17 -2.48481e-16 9.30863e-14 -8.07563e-17 1.98785e-16 1.61229e-12 4.73306e-13 -9.54166e-15 1.84302e-11 -5.27823e-13 1.55847e-13 4.34818e-11 -1.21689e-13 2.95792e-13 7.51052e-11 -2.06736e-13 4.96962e-13 4.34786e-11 -1.22849e-13 3.05333e-13 -7.73091 5.47488 -0.417314 4.34828e-11 -1.21756e-13 2.95792e-13 -2.90554 0.965183 -0.102902 4.34761e-11 -1.21756e-13 2.91816e-13 -10.2786 0.731801 -0.0259123 4.34911e-11 -1.17283e-13 2.73528e-13 -2.22167 -0.733487 0.20892 -2.03217e-16 0.0 -3.88251e-19 0.853235 -4.54903 -0.0750202 -0.00159933 2.69016 -0.00498126 -0.439323 1.86047 0.0870202 2.03217e-16 0.0 3.88251e-19 -0.00931415 -2.38107 0.0214442 0.00752337 -1.23663 0.0645204 0.426276 3.61923 -0.120142
-6.6359 81.9722 -138.322 1.5803 5.9987 2.3607 -0.146748 2.35326 -0.241232 2.09151 -2.97648 0.21143 -1.16345 2.04219 -1.80091 2.16089 -1.84906 -3.28016 -0.0 0.0 0.0 -0.0 0.0 0.0 5.90735e-15 1.63826e-15 -2.83901e-14 21.3623 7.05475 -1.49457 -3.6783 -1.57643 5.84404 0.00971699 2.18744 0.306616 2.9846e-10 -8.80581e-11 -1.77262e-10 5.14953e-10 -1.50724e-10 -3.08703e-10 2.98461e-10 -8.80581e-11 -1.77275e-10 7.73091 5.47488 0.417314 2.98456e-10 -8.80579e-11 -1.77262e-10 2.90554 0.965183 0.102902 2.98466e-10 -8.80583e-11 -1.77258e-10 10.2786 0.731801 0.0259123 2.98455e-10 -8.80555e-11 -1.77248e-10 2.22167 -0.733487 -0.20892 5.6994e-15 1.63947e-15 -2.88203e-14 -22.5615 5.02203 1.00519 3.97078 -1.75732 -6.25195 -4.78745e-05 -0.17343 0.0243738 4.22687e-11 2.46846e-10 2.02477e-10 7.3105e-11 4.26981e-10 3.50588e-10 4.22657e-11 2.46846e-10 2.02485e-10 -7.73091 5.47488 -0.417314 4.22701e-11 2.46846e-10 2.02475e-10 -2.90554 0.965183 -0.102902 4.2265e-11 2.46847e-10 2.02473e-10 -10.2786 0.731801 -0.0259123 4.22781e-11 2.46851e-10 2.02458e-10 -2.22167 -0.733487 0.20892 -2.03217e-16 0.0 -3.88251e-19 2.69422 -8.12018 3.8084 -0.035016 10.926 0.00352688 -0.586043 -2.43191 -3.01872 2.03217e-16 0.0 3.88251e-19 1.37967 -8.18372 0.959981 0.0100797 18.1072 -0.188499 0.392784 5.17921 0.338067
-6.63792 82.0911 -137.599 1.5848 5.0549 2.1494 -0.862182 4.84124 -0.521823 4.17569 -6.11741 0.408518 -2.25718 4.19406 -3.70644 4.20842 -3.78064 -6.74748 -0.0 0.0 0.0 -0.0 0.0 0.0 7.7683e-15 4.00713e-15 -5.97379e-14 44.3565 14.5195 -3.17964 -7.22123 -3.18966 12.0395 -0.00552808 4.49382 0.631421 5.83481e-10 -1.80241e-10 -3.86068e-10 1.00658e-09 -3.08352e-10 -6.72222e-10 5.83483e-10 -1.80241e-10 -3.86076e-10 7.73091 5.47488 0.417314 5.83476e-10 -1.8024e-10 -3.86067e-10 2.90554 0.965183 0.102902 5.83485e-10 -1.80241e-10 -3.86065e-10 10.2786 0.731801 0.0259123 5.83477e-10 -1.80239e-10 -3.86058e-10 2.22167 -0.733487 -0.20892 7.54482e-15 4.00965e-15 -6.00982e-14 -46.6173 10.3155 2.10193 7.74905 -3.54178 -12.872 6.90807e-05 -0.34746 0.0488329 3.41189e-11 5.1631e-10 4.36385e-10 5.91265e-11 8.93058e-10 7.5561e-10 3.41161e-11 5.16312e-10 4.36391e-10 -7.73091 5.47488 -0.417314 3.41207e-11 5.16311e-10 4.36381e-10 -2.90554 0.965183 -0.102902 3.41174e-11 5.16312e-10 4.36382e-10 -10.2786 0.731801 -0.0259123 3.41285e-11 5.16317e-10 4.3637e-10 -2.22167 -0.733487 0.20892 -2.03217e-16 0.0 -3.88251e-19 5.17486 -11.8565 8.01161 -0.0743712 19.6442 0.0109765 -1.24505 -6.91053 -6.33547 2.03217e-16 0.0 3.88251e-19 3.07243 -14.2715 2.00953 0.243145 38.5673 -0.558302 0.328747 6.91323 0.822396
-6.66667 82.1294 -137.035 1.5224 4.9129 2.1055 -1.47886 7.07025 -0.76058 6.02768 -8.91118 0.587676 -3.10398 6.1023 -5.43015 5.84853 -5.47435 -9.88086 -0.0 0.0 0.0 -0.0 0.0 0.0 8.58046e-15 4.94001e-15 -8.56673e-14 65.2572 21.1045 -4.7704 -10.0843 -4.53285 17.5822 -0.041476 6.56156 0.925239 8.08432e-10 -2.63968e-10 -5.32347e-10 1.39473e-09 -4.5181e-10 -9.27095e-10 8.08435e-10 -2.63968e-10 -5.32351e-10 7.73091 5.47488 0.417314 8.08426e-10 -2.63967e-10 -5.32345e-10 2.90554 0.965183 0.102902 8.08435e-10 -2.63968e-10 -5.32345e-10 10.2786 0.731801 0.0259123 8.08428e-10 -2.63968e-10 -5.32341e-10 2.22167 -0.733487 -0.20892 8.3486e-15 4.94365e-15 -8.59639e-14 -68.2288 15.0472 3.11074 10.781 -5.02136 -18.8219 0.000299058 -0.52029 0.0731241 3.98425e-11 7.40781e-10 6.06839e-10 6.91045e-11 1.28136e-09 1.05077e-09 3.98399e-11 7.40784e-10 6.06843e-10 -7.73091 5.47488 -0.417314 3.98447e-11 7.40783e-10 6.06833e-10 -2.90554 0.965183 -0.102902 3.98429e-11 7.40783e-10 6.06836e-10 -10.2786 0.731801 -0.0259123 3.98521e-11 7.40789e-10 6.06827e-10 -2.22167 -0.733487 0.20892 -2.03217e-16 0.0 -3.88251e-19 7.86267 -15.0031 11.8703 -0.109919 27.3978 0.0229102 -2.28922 -10.8825 -9.39235 2.03217e-16 0.0 3.88251e-19 4.75934 -19.7677 2.98373 0.860426 56.7892 -1.21693 0.250212 8.29743 1.26309
